<svg xmlns="http://www.w3.org/2000/svg" 
  xmlns:xlink="http://www.w3.org/1999/xlink" version="1.1" x="0px" y="0px" viewBox="0 0 100 125" enable-background="new 0 0 100 100" xml:space="preserve">
  <g>
    <g>
      <path d="M50.056,88.113c-0.038,0.001-0.075,0.001-0.113,0c-0.432,0-0.869-0.129-1.249-0.399    c-1.199-0.851-29.502-21.038-39.93-38.067c-0.014-0.023-0.027-0.046-0.041-0.069c-2.327-3.86-3.557-8.292-3.557-12.823    c0-13.712,11.156-24.868,24.868-24.868c7.939,0,15.311,3.772,19.965,10.037c4.654-6.265,12.027-10.037,19.965-10.037    c13.712,0,24.868,11.156,24.868,24.868c0,4.531-1.23,8.963-3.557,12.823c-0.013,0.023-0.026,0.046-0.041,0.069    c-10.427,17.029-38.73,37.216-39.93,38.067C50.926,87.984,50.489,88.113,50.056,88.113z M12.49,47.448    C21.308,61.794,44.468,79.262,50,83.319c5.532-4.057,28.692-21.525,37.51-35.87c0.01-0.016,0.02-0.033,0.03-0.05    c1.942-3.199,2.969-6.879,2.969-10.644c0-11.328-9.216-20.543-20.543-20.543c-7.54,0-14.462,4.12-18.065,10.753    c-0.378,0.697-1.108,1.13-1.9,1.13s-1.522-0.433-1.9-1.13c-3.603-6.633-10.525-10.753-18.065-10.753    c-11.328,0-20.543,9.216-20.543,20.543c0,3.765,1.026,7.445,2.969,10.644C12.47,47.415,12.48,47.432,12.49,47.448z"/>
    </g>
  </g>
</svg>