<svg xmlns="http://www.w3.org/2000/svg" 
  xmlns:xlink="http://www.w3.org/1999/xlink" version="1.1" x="0px" y="0px" viewBox="0 0 100 125" enable-background="new 0 0 100 100" xml:space="preserve">
  <g>
    <g>
      <path d="M91.403,92.524H62.66c-2.035,0-3.689-1.655-3.689-3.689V64.288c-0.566-1.177-2.938-5.291-8.735-5.291h-0.254    c-5.798,0-8.169,4.114-8.758,5.376l0.023,24.462c0,2.034-1.655,3.689-3.689,3.689H8.814c-2.034,0-3.689-1.655-3.689-3.689V52.713    c0-0.985,0.383-1.911,1.079-2.607L47.5,8.81c1.437-1.437,3.777-1.439,5.216-0.001l41.295,41.296    c0.697,0.698,1.08,1.624,1.08,2.608v36.122C95.091,90.869,93.437,92.524,91.403,92.524z M62.834,88.66h28.393V52.785    L50.109,11.666L8.989,52.785V88.66h28.393V64.288c0-0.549,0.115-1.072,0.341-1.554c0.832-1.78,4.178-7.601,12.258-7.601h0.254    c8.08,0,11.426,5.821,12.26,7.605c0.225,0.479,0.34,1.002,0.34,1.55V88.66z"/>
    </g>
  </g>
</svg>