<svg xmlns="http://www.w3.org/2000/svg" 
  xmlns:xlink="http://www.w3.org/1999/xlink" version="1.1" x="0px" y="0px" viewBox="0 0 100 125" enable-background="new 0 0 100 100" xml:space="preserve">
  <g>
    <path d="M94.323,60.728c-0.028-3.134-0.475-6.247-1.334-9.194L83.88,15.417c-0.711-2.452-2.993-4.164-5.547-4.164H21.165   c-2.552,0-4.832,1.712-5.566,4.231l-9.07,35.983c-0.876,3.009-1.324,6.123-1.352,9.262c-0.001,0.036-0.011,0.07-0.011,0.107v23.667   c0,2.071,1.679,3.75,3.75,3.75H49.75h40.833c2.071,0,3.75-1.679,3.75-3.75V60.836C94.333,60.799,94.324,60.765,94.323,60.728z    M62.75,62.041c0.009,2.546-0.613,5.097-2.031,7.211c-1.76,2.625-5.011,5.25-10.969,5.25c-5.959,0-9.208-2.625-10.969-5.25   c-1.418-2.115-2.04-4.665-2.031-7.211c0.01-2.769-2.38-4.955-5.149-4.955l-20.772,0c-0.772,0-1.381-0.692-1.245-1.452   c0.187-1.05,0.428-2.097,0.731-3.139l9.07-35.982c0.23-0.786,0.962-1.336,1.78-1.336h57.168c0.82,0,1.552,0.549,1.761,1.267   l9.108,36.119c0.294,1.012,0.531,2.037,0.715,3.071c0.135,0.76-0.473,1.452-1.245,1.452l-20.773,0   C65.13,57.086,62.74,59.272,62.75,62.041z"/>
  </g>
</svg>