<svg xmlns="http://www.w3.org/2000/svg" 
  xmlns:xlink="http://www.w3.org/1999/xlink" version="1.1" x="0px" y="0px" viewBox="0 0 100 125" enable-background="new 0 0 100 100" xml:space="preserve">
  <g>
    <path d="M69.982,5H29.37C15.755,5,4.677,16.078,4.677,29.694v40.612C4.677,83.922,15.755,95,29.37,95h40.612   c13.616,0,24.694-11.078,24.694-24.694V29.694C94.677,16.078,83.599,5,69.982,5z M89.94,70.306   c0,11.004-8.953,19.957-19.958,19.957H29.37c-11.004,0-19.957-8.953-19.957-19.957V29.694c0-11.004,8.953-19.957,19.957-19.957   h40.612c11.005,0,19.958,8.953,19.958,19.957V70.306z"/>
    <polygon points="52.045,29.495 47.308,29.495 47.308,47.632 29.172,47.632 29.172,52.368 47.308,52.368 47.308,70.505    52.045,70.505 52.045,52.368 70.181,52.368 70.181,47.632 52.045,47.632  "/>
  </g>
</svg>