<svg xmlns="http://www.w3.org/2000/svg" 
  xmlns:xlink="http://www.w3.org/1999/xlink" version="1.1" x="0px" y="0px" viewBox="0 0 100 125" enable-background="new 0 0 100 100" xml:space="preserve">
  <g>
    <g>
      <g>
        <path d="M50,78.643c-13.411,0-24.321-10.911-24.321-24.321C25.679,40.911,36.589,30,50,30s24.321,10.911,24.321,24.322     C74.321,67.732,63.411,78.643,50,78.643z M50,34c-11.205,0-20.321,9.116-20.321,20.322c0,11.205,9.116,20.321,20.321,20.321     s20.321-9.116,20.321-20.321C70.321,43.116,61.205,34,50,34z"/>
      </g>
      <g>
        <path d="M82.715,88.75h-65.43c-6.831,0-12.388-5.557-12.388-12.388V34.907c0-6.831,5.557-12.388,12.388-12.388h7.646     c0.65,0,1.269-0.312,1.656-0.835l5.9-7.978c1.138-1.538,2.959-2.456,4.872-2.456h25.209c1.979,0,3.837,0.969,4.969,2.592     l5.442,7.796c0.386,0.552,1.018,0.881,1.689,0.881h8.045c6.831,0,12.388,5.557,12.388,12.388v41.456     C95.103,83.193,89.546,88.75,82.715,88.75z M17.285,26.519c-4.625,0-8.388,3.763-8.388,8.388v41.456     c0,4.625,3.763,8.388,8.388,8.388h65.43c4.625,0,8.388-3.763,8.388-8.388V34.907c0-4.625-3.763-8.388-8.388-8.388H74.67     c-1.979,0-3.836-0.969-4.969-2.591l-5.443-7.797c-0.385-0.552-1.016-0.881-1.688-0.881H37.36c-0.65,0-1.27,0.312-1.655,0.835     l-5.901,7.978c-1.139,1.538-2.96,2.456-4.872,2.456H17.285z"/>
      </g>
    </g>
  </g>
</svg>