<svg xmlns="http://www.w3.org/2000/svg" 
  xmlns:xlink="http://www.w3.org/1999/xlink" version="1.1" x="0px" y="0px" viewBox="0 0 100 125" enable-background="new 0 0 100 100" xml:space="preserve">
  <g>
    <path d="M94.41,91.541L73.975,71.105c6.353-6.997,10.23-16.282,10.23-26.455c0-21.723-17.673-39.395-39.395-39.395   S5.414,22.927,5.414,44.65c0,21.722,17.673,39.395,39.395,39.395c10.094,0,19.31-3.82,26.289-10.085l20.447,20.447   C91.94,94.802,92.459,95,92.977,95s1.037-0.198,1.433-0.594C95.202,93.615,95.202,92.332,94.41,91.541z M9.467,44.65   c0-19.488,15.855-35.342,35.342-35.342S80.151,25.162,80.151,44.65c0,9.727-3.951,18.547-10.331,24.944   c-0.04,0.034-0.084,0.062-0.123,0.1c-0.028,0.028-0.048,0.061-0.074,0.09c-6.386,6.306-15.153,10.207-24.815,10.207   C25.322,79.992,9.467,64.137,9.467,44.65z"/>
  </g>
</svg>