<svg xmlns="http://www.w3.org/2000/svg" 
  xmlns:xlink="http://www.w3.org/1999/xlink" version="1.1" x="0px" y="0px" viewBox="0 0 100 125" enable-background="new 0 0 100 100" xml:space="preserve">
  <g>
    <path d="M60.297,5.849c-0.927-0.927-2.43-0.927-3.358,0c-0.927,0.927-0.927,2.43,0,3.358l22.259,22.258H50.104   c-15.506,0-26.413,9.113-31.449,17.641c-4.544,7.692-6.946,16.81-6.946,26.368v16.921c0,1.311,1.063,2.374,2.374,2.374   s2.374-1.063,2.374-2.374V75.473c0-8.709,2.173-16.992,6.286-23.953c4.37-7.4,13.853-15.307,27.361-15.307h29.153L56.863,58.932   c-0.921,0.934-0.91,2.437,0.024,3.358c0.463,0.456,1.065,0.684,1.667,0.684c0.613,0,1.226-0.236,1.691-0.708l28.031-28.438   L60.297,5.849z"/>
  </g>
</svg>