<svg xmlns="http://www.w3.org/2000/svg" 
  xmlns:xlink="http://www.w3.org/1999/xlink" version="1.1" x="0px" y="0px" viewBox="0 0 100 125" enable-background="new 0 0 100 100" xml:space="preserve">
  <g>
    <g>
      <path d="M50.184,55.674c-13.642,0-24.741-11.099-24.741-24.741S36.541,6.191,50.184,6.191S74.925,17.29,74.925,30.933    S63.826,55.674,50.184,55.674z M50.184,10.602c-11.21,0-20.331,9.12-20.331,20.331s9.12,20.331,20.331,20.331    s20.331-9.12,20.331-20.331S61.394,10.602,50.184,10.602z"/>
    </g>
    <g>
      <path d="M92.802,93.809c-1.218,0-2.205-0.987-2.205-2.205v-6.359c0-8.781-7.144-15.924-15.924-15.924H25.696    c-8.781,0-15.924,7.144-15.924,15.924v6.359c0,1.218-0.987,2.205-2.205,2.205s-2.205-0.987-2.205-2.205v-6.359    c0-11.213,9.122-20.335,20.335-20.335h48.977c11.213,0,20.335,9.122,20.335,20.335v6.359    C95.008,92.821,94.02,93.809,92.802,93.809z"/>
    </g>
  </g>
</svg>